<svg xmlns="http://www.w3.org/2000/svg" width="165.185" height="79.68" viewBox="0 0 165.185 79.68">
  <g id="Group_23" data-name="Group 23" transform="translate(-75.201 -44.552)">
    <g id="Group_21" data-name="Group 21" transform="translate(146.121 67.396)">
      <path id="Path_153" data-name="Path 153" d="M1813.242,623.353a5.5,5.5,0,0,1-2.568-3.113,17.365,17.365,0,0,1-.75-5.659v-17.5l-11.363,25.227h-.909l-11.818-25.681v25.681h-1.818v-30h4.318l10.909,23.636,10.682-23.636h4.091v22.273a16.043,16.043,0,0,0,1.068,6.545,3.453,3.453,0,0,0,3.25,2.318v.909A10.681,10.681,0,0,1,1813.242,623.353Z" transform="translate(-1784.014 -592.308)" fill="#fff"/>
      <path id="Path_154" data-name="Path 154" d="M2628.776,811.107a6.1,6.1,0,0,1-2.568-2.023,6.011,6.011,0,0,1-1.068-3.727,5.023,5.023,0,0,1,3.2-4.909,20.487,20.487,0,0,1,8.386-1.455h1.363q0-4.454-1.227-6.091a4.16,4.16,0,0,0-3.545-1.636,5.588,5.588,0,0,0-3.273.864,4.843,4.843,0,0,0-1.728,3h-2.044a12.794,12.794,0,0,1,.181-2.432,3.278,3.278,0,0,1,.955-1.659,5.293,5.293,0,0,1,2.7-1.2,20.552,20.552,0,0,1,4.114-.386,8.232,8.232,0,0,1,5.818,1.977q2.136,1.978,2.136,7.568v12.273h-2.273l-1.59-2.045h-.229a6.306,6.306,0,0,1-2.408,1.773,9.516,9.516,0,0,1-3.955.727A7.76,7.76,0,0,1,2628.776,811.107Zm7.5-2.159a7.326,7.326,0,0,0,1.818-2v-6.137h-1.363a9.791,9.791,0,0,0-5.318,1.25,3.773,3.773,0,0,0-1.955,3.3,4.063,4.063,0,0,0,1.25,3.2,4.443,4.443,0,0,0,3.068,1.114A4.142,4.142,0,0,0,2636.277,808.948Z" transform="translate(-2590.231 -781.266)" fill="#fff"/>
      <path id="Path_155" data-name="Path 155" d="M3059.685,818.993a6.148,6.148,0,0,0,3.659-1.023,8.032,8.032,0,0,0,2.477-3.75l.909-2.5-7.273-17.727a5.509,5.509,0,0,0-5-3.636v-.909h3.864a5.446,5.446,0,0,1,5.455,3.636l5.182,12.591,5.728-15.773h2.273l-8.863,24.318a11.188,11.188,0,0,1-2.91,4.864,6.426,6.426,0,0,1-4.137,1.273h-1.363Z" transform="translate(-3001.731 -781.266)" fill="#fff"/>
      <path id="Path_156" data-name="Path 156" d="M3648.277,811.107a6.092,6.092,0,0,1-2.57-2.023,6.01,6.01,0,0,1-1.068-3.727,5.023,5.023,0,0,1,3.2-4.909,20.483,20.483,0,0,1,8.386-1.455h1.364q0-4.454-1.227-6.091a4.163,4.163,0,0,0-3.547-1.636,5.586,5.586,0,0,0-3.272.864,4.849,4.849,0,0,0-1.727,3h-2.045a12.744,12.744,0,0,1,.182-2.432,3.282,3.282,0,0,1,.955-1.659,5.3,5.3,0,0,1,2.7-1.2,20.548,20.548,0,0,1,4.114-.386,8.232,8.232,0,0,1,5.818,1.977q2.137,1.978,2.136,7.568v12.273h-2.272l-1.591-2.045h-.227a6.308,6.308,0,0,1-2.409,1.773,9.52,9.52,0,0,1-3.955.727A7.754,7.754,0,0,1,3648.277,811.107Zm7.5-2.159a7.306,7.306,0,0,0,1.819-2v-6.137h-1.364a9.793,9.793,0,0,0-5.319,1.25,3.771,3.771,0,0,0-1.954,3.3,4.057,4.057,0,0,0,1.251,3.2,4.437,4.437,0,0,0,3.067,1.114A4.135,4.135,0,0,0,3655.775,808.948Z" transform="translate(-3567.419 -781.266)" fill="#fff"/>
    </g>
    <g id="Group_3" data-name="Group 3" transform="translate(75.201 44.552)">
      <g id="Group_1" data-name="Group 1" transform="translate(0 0)">
        <path id="Path_1" data-name="Path 1" d="M392.574,304.675a12.166,12.166,0,0,0,8.667,2.862,9.441,9.441,0,0,0,6.165-2.494.531.531,0,0,0,.168-.719,20.708,20.708,0,0,1-1.46-5.492,22.6,22.6,0,0,1-.069-4.85,10.471,10.471,0,0,1-11.179-.789c.011.233.02.4.027.57a17.114,17.114,0,0,1-.657,5.755,1.392,1.392,0,0,1-.931.989c-1.069.385-2.119.823-3.179,1.24A11.465,11.465,0,0,0,392.574,304.675Z" transform="translate(-373.279 -246.728)" fill="#fff"/>
        <path id="Path_2" data-name="Path 2" d="M397.654,303.049a8.786,8.786,0,0,0,6.684,1.9,9.444,9.444,0,0,0,4.977-2.365,21.018,21.018,0,0,0,5.127-7.135c.283-.595.516-1.213.776-1.819.243-.565.847-.815,1.25-.444.362.332.507.119.711-.113a6.625,6.625,0,0,0,.7-.978,20.756,20.756,0,0,0,1.758-3.753,5.361,5.361,0,0,0,.34-1.443c.017-.818-.382-1.063-1.025-.734a1.879,1.879,0,0,0-.689.668.845.845,0,0,1-1,.4.882.882,0,0,1-.61-.856c-.017-.3-.019-.6-.063-.889a9.939,9.939,0,0,0-4.5-7.04,9.346,9.346,0,0,1-1.757-1.52,26.281,26.281,0,0,1-3-3.953c-.1-.174-.172-.243-.377-.114a37.776,37.776,0,0,1-11.347,4.8,6.577,6.577,0,0,0-4.122,3.431,14.67,14.67,0,0,0-1.74,5.315.87.87,0,0,1-1.648.387,2.717,2.717,0,0,0-.322-.387c-.341-.322-.842-.473-1.094-.305-.374.247-.307.637-.233.987A15.486,15.486,0,0,0,389.157,293a2.827,2.827,0,0,0,.324.333c.091.091.158.109.288.012a.85.85,0,0,1,1.46.427,26.5,26.5,0,0,0,1.758,3.67A18.363,18.363,0,0,0,397.654,303.049Zm15.978-14.109a4.182,4.182,0,0,1-2.8,1.344,7.968,7.968,0,0,1-3.219-.67c-.138-.056-.28-.141-.208-.315.081-.191.243-.145.4-.08a8.411,8.411,0,0,0,1.928.573,4.073,4.073,0,0,0,3.623-1.172c.134-.128.286-.46.519-.2C414.094,288.671,413.771,288.8,413.632,288.94Zm2.352-2.682c.154.111.086.249.006.376a2.33,2.33,0,0,1-.643.646,1.414,1.414,0,0,0,.2.028h0a1.872,1.872,0,0,0,.449,0c.3-.037.529.044.557.377s-.2.446-.487.482a3.186,3.186,0,0,1-1.841-.352,16.038,16.038,0,0,0-1.787-.845c-.133-.045-.269-.086-.463-.149a1.953,1.953,0,0,1-.412,2.036,1.8,1.8,0,0,1-1.315.577c-1.174.022-1.914-.8-1.95-2.214a3.654,3.654,0,0,0-1.532,1.712c-.147.335-.426.455-.668.288s-.225-.412-.113-.656a4.491,4.491,0,0,1,3.374-2.647,6.375,6.375,0,0,1,4.257.618c.488.247.664.216,1.06-.164.056-.055.1-.114.16-.171.088-.092.189-.146.305-.055.131.1.108.218.02.338a5.6,5.6,0,0,1-.538.539.861.861,0,0,0,.426-.1,1.416,1.416,0,0,0,.321-.236c.024-.024.053-.038.077-.061a1.8,1.8,0,0,0,.188-.247C415.723,286.243,415.828,286.145,415.984,286.257Zm-10.534-2.18a.771.771,0,0,1,.164-.164,10.189,10.189,0,0,1,6.894-2.337,3.582,3.582,0,0,1,3.061,1.687,1.25,1.25,0,0,1,.214.535.4.4,0,0,1-.3.407.371.371,0,0,1-.476-.16,3.22,3.22,0,0,0-.4-.615h0a2.57,2.57,0,0,0-1.468-.9l-.07-.017a4.6,4.6,0,0,0-.829-.092c-.036,0-.074,0-.11,0-.285,0-.576.011-.87.036a9.831,9.831,0,0,0-5.029,2.061,1.729,1.729,0,0,1-.251.18.4.4,0,0,1-.52-.124A.384.384,0,0,1,405.45,284.077Zm-2.672,4.19c0-.408.149-.621.434-.6.377.033.426.305.426.617q-.007,2.852,0,5.7c0,.066,0,.13,0,.194-.028.266-.155.444-.441.438s-.411-.183-.413-.457q0-1.514,0-3.027Q402.778,289.7,402.778,288.267Zm.232,9.283a.416.416,0,0,0,.515,0,2.087,2.087,0,0,1,2.243-.08,4.261,4.261,0,0,0,1.975.492c.332.009.665,0,1,0-.008.133-.13.178-.21.249a17.2,17.2,0,0,1-3.5,2.485,3.648,3.648,0,0,1-3.528,0,18.168,18.168,0,0,1-3.809-2.758,9.8,9.8,0,0,0,1.748-.042,4.067,4.067,0,0,0,1.319-.43A2.093,2.093,0,0,1,403.01,297.549Zm-12.162-13.985a3.208,3.208,0,0,1,1.7-1.623h0a4.5,4.5,0,0,1,.96-.3,5.489,5.489,0,0,1,1.122-.089,10.584,10.584,0,0,1,6.323,2.352c.236.18.346.412.149.667-.216.282-.46.183-.707,0a10.128,10.128,0,0,0-5.093-2.118,5.33,5.33,0,0,0-1.966.113,2.773,2.773,0,0,0-.9.415l-.011.006a2.332,2.332,0,0,0-.66.728,2.4,2.4,0,0,0-.127.2.42.42,0,0,1-.593.266A.415.415,0,0,1,390.848,283.564Zm-.2,4.608a1.565,1.565,0,0,1-.341-.061.4.4,0,0,1-.3-.478.393.393,0,0,1,.448-.343,2.525,2.525,0,0,0,.751-.006,2.863,2.863,0,0,1-.624-.648c-.078-.128-.155-.269-.009-.379.169-.128.28,0,.373.138a1.6,1.6,0,0,0,.133.138h0a1.464,1.464,0,0,0,.36.318,1.259,1.259,0,0,0,.493.166c-.16-.183-.354-.324-.5-.512-.1-.124-.153-.25,0-.369s.236-.017.332.08a3.494,3.494,0,0,0,.28.269.69.69,0,0,0,.847.085,6.119,6.119,0,0,1,5.354-.337,4.27,4.27,0,0,1,2.258,2.144,2.058,2.058,0,0,1,.132.322.426.426,0,1,1-.8.287,3.475,3.475,0,0,0-1.166-1.521.821.821,0,0,0-.363-.208c-.169,1.535-.953,2.3-2.194,2.155-1.146-.138-1.753-1.13-1.54-2.581a9.062,9.062,0,0,0-1.984.859A3.436,3.436,0,0,1,390.644,288.171Zm2.107.6c-.106-.1-.21-.221-.077-.365.153-.166.28-.044.391.069a4.168,4.168,0,0,0,2.909,1.365,7.039,7.039,0,0,0,2.6-.548c.183-.067.443-.308.562,0s-.236.319-.416.391a7.466,7.466,0,0,1-3,.584A4.4,4.4,0,0,1,392.751,288.774Z" transform="translate(-375.388 -258.254)" fill="#fff"/>
        <path id="Path_3" data-name="Path 3" d="M414.994,305.789a28.51,28.51,0,0,1-5.672,5.445,30.2,30.2,0,0,1-11.534,5.163.921.921,0,0,1-.9-.2.821.821,0,0,1-.219-.859.869.869,0,0,1,.729-.617,26.225,26.225,0,0,0,4.019-1.172,28.425,28.425,0,0,0,12.491-9.164.429.429,0,0,0,.042-.609c-.161-.216-.235-.6-.429-.664-.247-.081-.441.277-.659.444a11.7,11.7,0,0,1-8.4,2.318,13.419,13.419,0,0,1-10.8-6.523c-.15-.24-.261-.274-.515-.172q-3.531,1.411-7.071,2.8a7.205,7.205,0,0,0-4.761,7.246c-.006,3.238.014,6.476.013,9.714,0,.257.064.346.33.387a52.29,52.29,0,0,0,13.627.43,26.7,26.7,0,0,0,7.2-1.668,31.654,31.654,0,0,0,9.693-6.414,21.938,21.938,0,0,0,3.637-4.332c.072-.113.2-.216.12-.382a7.487,7.487,0,0,0-.8-1.34C415.072,305.692,415.032,305.739,414.994,305.789Z" transform="translate(-378.259 -243.377)" fill="#fff"/>
        <path id="Path_4" data-name="Path 4" d="M430.665,323.632c-.059-.916-.152-1.831-.239-2.719-.1-.984-.2-2-.254-2.994-.16-2.888-.266-5.832-.369-8.678L429.72,307c-.191-5.054-.443-10.929-1.027-16.712a90.768,90.768,0,0,0-1.827-11.625,23.384,23.384,0,0,0-3.129-7.858c-2.989-4.532-7.044-6.6-12.056-6.134a22.274,22.274,0,0,0-8.53-1.113,17.364,17.364,0,0,0-11.195,4.938,23.55,23.55,0,0,0-5.71,9.3,41.085,41.085,0,0,0-2.089,12.97,133.371,133.371,0,0,0,.642,13.84c.109,1.335.218,2.668.315,4l.028.377a41.169,41.169,0,0,1,.1,7.414,11.859,11.859,0,0,1-.858,3.662,9.347,9.347,0,0,0-1.938,1.477,10.65,10.65,0,0,0-3.088,8.01c.016,1.416.016,2.863.016,4.26,0,1.064,0,2.127.006,3.191,0,.505,0,1.013,0,1.518s0,1.034,0,1.552a2.162,2.162,0,0,0,1.718,2.176c.17.041.343.07.515.1l.109.017a58.959,58.959,0,0,0,9.685.82q2.279,0,4.5-.189A29.794,29.794,0,0,0,404,341.311a33.977,33.977,0,0,0,12.475-8.395,16.371,16.371,0,0,1-2.218,5.961,2.2,2.2,0,0,0,2.23,3.39,17.106,17.106,0,0,0,2.064-.4,15.6,15.6,0,0,0,9.968-7.354A18.587,18.587,0,0,0,430.665,323.632Zm-3.3,10.226a14.233,14.233,0,0,1-9.159,6.731,15.694,15.694,0,0,1-1.9.365.887.887,0,0,1-.95-.376.9.9,0,0,1,.042-1.022,17.686,17.686,0,0,0,2.445-6.818,10.719,10.719,0,0,0-.085-3.416,23.359,23.359,0,0,1-2,2.429,33.068,33.068,0,0,1-12.223,8.317,28.856,28.856,0,0,1-7.73,1.6,55.289,55.289,0,0,1-13.854-.617c-.178-.03-.358-.056-.535-.1a.846.846,0,0,1-.7-.9c-.008-1.024,0-2.047,0-3.069-.016-2.487.006-4.974-.022-7.459a9.314,9.314,0,0,1,2.7-7.051,7.943,7.943,0,0,1,1.729-1.307.992.992,0,0,0,.437-.47,12.81,12.81,0,0,0,1.014-4.165,44.687,44.687,0,0,0-.125-8.029c-.427-5.9-1.089-11.788-.953-17.718a40.179,40.179,0,0,1,2.013-12.558,22.354,22.354,0,0,1,5.385-8.794,16,16,0,0,1,10.361-4.565,20.815,20.815,0,0,1,8.032,1.052.986.986,0,0,0,.416.069c4.82-.482,8.35,1.612,10.937,5.532a22.493,22.493,0,0,1,2.944,7.428,90.457,90.457,0,0,1,1.8,11.458c.557,5.529.811,11.078,1.021,16.629.136,3.65.252,7.3.454,10.946.1,1.914.368,3.814.493,5.725A17.544,17.544,0,0,1,427.369,333.858Z" transform="translate(-379.361 -263.504)" fill="#fff"/>
        <path id="Path_5" data-name="Path 5" d="M424.316,317.3c-.207-3.659-.324-7.323-.459-10.985-.243-6.561-.537-13.117-1.335-19.64a69.892,69.892,0,0,0-1.8-9.8,17.228,17.228,0,0,0-3.287-6.794,8.921,8.921,0,0,0-8.663-3.418,1.07,1.07,0,0,1-.532-.077,19.065,19.065,0,0,0-7.631-1.1,14.244,14.244,0,0,0-10.39,5.2,23.814,23.814,0,0,0-4.924,10.632,49.213,49.213,0,0,0-.922,11.084c.073,5.326.663,10.621,1.033,15.928a31.91,31.91,0,0,1-.535,10.536l0,.086.045-.041c.135-.042.272-.073.4-.125q5.066-2.012,10.135-4.016a.842.842,0,0,0,.567-.646,19.7,19.7,0,0,0,.369-5.828,2.073,2.073,0,0,0-.759-1.678,5.011,5.011,0,0,1-.642-.726,26.431,26.431,0,0,1-3.748-6.191c-.061-.138-.066-.33-.316-.322a2.112,2.112,0,0,1-1.52-.673,6.431,6.431,0,0,1-1.088-1.362,21.779,21.779,0,0,1-2.072-4.374,6.1,6.1,0,0,1-.4-2.282,2.229,2.229,0,0,1,2.28-2.213,3.21,3.21,0,0,1,1.322.344c.044-.169.083-.315.121-.462a14.335,14.335,0,0,1,2.257-5.032,8.2,8.2,0,0,1,5-3.312,23.53,23.53,0,0,0,2.279-.637,36.242,36.242,0,0,0,8.933-4.363.864.864,0,0,1,1.4.291,21.155,21.155,0,0,0,2.928,4.191,10.711,10.711,0,0,0,2.074,1.859,11.487,11.487,0,0,1,4.83,7.116c.056.252.135.283.379.2a2.241,2.241,0,0,1,3.155,1.62,3.361,3.361,0,0,1-.017,1.391,17.687,17.687,0,0,1-2.975,6.476,3.679,3.679,0,0,1-.734.745,1.522,1.522,0,0,1-.931.441c-.51-.019-.653.275-.828.662a22.509,22.509,0,0,1-5.918,8.214.692.692,0,0,0-.208.48,19.341,19.341,0,0,0,.019,6.342,20.185,20.185,0,0,0,3.614,8.617,10.72,10.72,0,0,1,2.03,6.093,16.941,16.941,0,0,1-1.748,7.648c-.055.119-.1.242-.163.383a.735.735,0,0,0,.164,0,12.588,12.588,0,0,0,7.739-5.521,15.546,15.546,0,0,0,1.966-9.347C424.693,321.035,424.422,319.173,424.316,317.3Z" transform="translate(-376.535 -262.405)" fill="#fff"/>
      </g>
    </g>
  </g>
</svg>
